<svg xmlns="http://www.w3.org/2000/svg" version="1.1" xmlns:xlink="http://www.w3.org/1999/xlink" xmlns:svgjs="http://svgjs.dev/svgjs" width="1000" height="1000" viewBox="0 0 1000 1000"><rect width="1000" height="1000" fill="#ffffff"></rect><g transform="matrix(0.7,0,0,0.7,150,106.25)"><svg viewBox="0 0 320 360" data-background-color="#ffffff" preserveAspectRatio="xMidYMid meet" height="1125" width="1000" xmlns="http://www.w3.org/2000/svg" xmlns:xlink="http://www.w3.org/1999/xlink"><g id="tight-bounds" transform="matrix(1,0,0,1,0,0)"><svg viewBox="0 0 320 360" height="360" width="320"><g><svg></svg></g><g><svg viewBox="0 0 320 360" height="360" width="320"><g><path xmlns="http://www.w3.org/2000/svg" d="M297.491 100.645c-12.426-21.51-112.674-79.355-137.491-79.355-24.817 0-125.028 57.845-137.491 79.355-11.591 20.02-11.591 138.726 0 158.746 12.463 21.474 112.674 79.319 137.491 79.319 24.817 0 125.064-57.845 137.491-79.355 11.591-20.02 11.591-138.69 0-158.71zM309.481 93.705c-14.461-24.998-119.469-86.295-149.481-86.295-30.012 0-135.02 61.297-149.481 86.295-14.025 24.199-14.025 148.391 0 172.59 14.461 24.998 119.469 86.295 149.481 86.295 30.012 0 135.02-61.297 149.481-86.259 14.025-24.235 14.025-148.427 0-172.626zM300.906 261.353c-12.753 22.055-115.472 81.317-140.906 81.318-25.434 0-128.153-59.298-140.906-81.354-11.881-20.529-11.881-142.178 0-162.707 12.753-22.019 115.472-81.281 140.906-81.281 25.434 0 128.153 59.298 140.906 81.318 11.881 20.529 11.881 142.178 0 162.706z" fill="#8d021f" fill-rule="nonzero" stroke="none" stroke-width="1" stroke-linecap="butt" stroke-linejoin="miter" stroke-miterlimit="10" stroke-dasharray="" stroke-dashoffset="0" font-family="none" font-weight="none" font-size="none" text-anchor="none" style="mix-blend-mode: normal" data-fill-palette-color="tertiary"></path></g><g transform="matrix(1,0,0,1,48.000000000000014,167.46735032423464)"><svg viewBox="0 0 223.99999999999997 25.065299351530687" height="25.065299351530687" width="223.99999999999997"><g><svg viewBox="0 0 223.99999999999997 25.065299351530687" height="25.065299351530687" width="223.99999999999997"><g><svg viewBox="0 0 223.99999999999997 25.065299351530687" height="25.065299351530687" width="223.99999999999997"><g><svg viewBox="0 0 223.99999999999997 25.065299351530687" height="25.065299351530687" width="223.99999999999997"><g id="textblocktransform"><svg viewBox="0 0 223.99999999999997 25.065299351530687" height="25.065299351530687" width="223.99999999999997" id="textblock"><g><svg viewBox="0 0 223.99999999999997 25.065299351530687" height="25.065299351530687" width="223.99999999999997"><g transform="matrix(1,0,0,1,0,0)"><svg width="223.99999999999997" viewBox="1.850000023841858 -36.5 331.5199890136719 37.099998474121094" height="25.065299351530687" data-palette-color="#ffffff"><path d="M22.45 0L7.4 0Q5.8 0 4.55-0.75 3.3-1.5 2.58-2.78 1.85-4.05 1.85-5.55L1.85-5.55Q1.85-7.15 2.63-8.38 3.4-9.6 4.9-10.6L4.9-10.6 16.65-18.05Q17.4-18.5 17.63-18.95 17.85-19.4 17.85-19.9L17.85-19.9Q17.85-20.5 17.35-21.03 16.85-21.55 16.05-21.55L16.05-21.55 3.1-21.55 3.1-25.5 17.45-25.5Q19-25.5 20.23-24.75 21.45-24 22.18-22.73 22.9-21.45 22.9-19.95L22.9-19.95Q22.9-18.4 22.13-17.13 21.35-15.85 19.9-14.9L19.9-14.9 8.15-7.45Q7.4-7 7.18-6.55 6.95-6.1 6.95-5.6L6.95-5.6Q6.95-5 7.45-4.48 7.95-3.95 8.8-3.95L8.8-3.95 22.45-3.95 22.45 0ZM41.15 0.6L41.15 0.6Q37.7 0.6 34.97-0.83 32.25-2.25 30.72-4.8 29.2-7.35 29.2-10.75L29.2-10.75 29.2-25.5 33.85-25.5 33.85-10.8Q33.85-8.5 34.85-6.83 35.85-5.15 37.52-4.25 39.2-3.35 41.1-3.35L41.1-3.35Q43.05-3.35 44.72-4.25 46.4-5.15 47.42-6.83 48.45-8.5 48.45-10.8L48.45-10.8 48.45-25.5 53.1-25.5 53.1-10.75Q53.1-7.35 51.55-4.8 50-2.25 47.3-0.83 44.6 0.6 41.15 0.6ZM65 0L60.4 0 60.4-36.5 65-36.5 65-22.2Q66.55-24.2 68.77-25.15 71-26.1 73.4-26.1L73.4-26.1Q76.8-26.1 79.3-24.68 81.8-23.25 83.2-20.7 84.59-18.15 84.59-14.75L84.59-14.75 84.59 0 80 0 80-14.7Q80-17 78.95-18.68 77.9-20.35 76.17-21.25 74.45-22.15 72.5-22.15L72.5-22.15Q70.55-22.15 68.84-21.28 67.15-20.4 66.07-18.75 65-17.1 65-14.8L65-14.8 65 0ZM96.34 0L91.74 0 91.74-18.25Q91.74-21.65 93.67-23.58 95.59-25.5 98.99-25.5L98.99-25.5 104.24-25.5 104.24-21.55 99.84-21.55Q98.19-21.55 97.27-20.6 96.34-19.65 96.34-17.95L96.34-17.95 96.34 0ZM113.14 0L108.49 0 108.49-25.5 113.14-25.5 113.14 0ZM110.84-29.55L110.84-29.55Q109.59-29.55 108.67-30.48 107.74-31.4 107.74-32.65L107.74-32.65Q107.74-33.9 108.67-34.83 109.59-35.75 110.84-35.75L110.84-35.75Q112.09-35.75 113.02-34.83 113.94-33.9 113.94-32.65L113.94-32.65Q113.94-31.4 113.02-30.48 112.09-29.55 110.84-29.55ZM132.14 0.6L132.14 0.6Q135.84 0.6 138.79-1 141.74-2.6 143.46-5.63 145.19-8.65 145.19-12.9L145.19-12.9 145.19-36.5 140.59-36.5 140.59-20.95 140.49-20.95Q139.64-22.5 138.26-23.65 136.89-24.8 135.11-25.45 133.34-26.1 131.39-26.1L131.39-26.1Q127.84-26.1 125.04-24.5 122.24-22.9 120.61-19.98 118.99-17.05 118.99-13.05L118.99-13.05Q118.99-9.9 119.96-7.38 120.94-4.85 122.69-3.05 124.44-1.25 126.84-0.33 129.24 0.6 132.14 0.6ZM132.14-3.35L132.14-3.35Q129.79-3.35 127.86-4.5 125.94-5.65 124.79-7.75 123.64-9.85 123.64-12.75L123.64-12.75Q123.64-15.55 124.76-17.65 125.89-19.75 127.79-20.95 129.69-22.15 132.09-22.15L132.09-22.15Q134.44-22.15 136.36-21 138.29-19.85 139.41-17.73 140.54-15.6 140.54-12.7L140.54-12.7Q140.54-9.85 139.41-7.75 138.29-5.65 136.36-4.5 134.44-3.35 132.14-3.35ZM164.09 0.6L164.09 0.6Q167.78 0.6 170.74-1 173.69-2.6 175.41-5.63 177.13-8.65 177.13-12.9L177.13-12.9 177.13-36.5 172.53-36.5 172.53-20.95 172.44-20.95Q171.59-22.5 170.21-23.65 168.84-24.8 167.06-25.45 165.28-26.1 163.34-26.1L163.34-26.1Q159.78-26.1 156.99-24.5 154.19-22.9 152.56-19.98 150.94-17.05 150.94-13.05L150.94-13.05Q150.94-9.9 151.91-7.38 152.88-4.85 154.63-3.05 156.38-1.25 158.78-0.33 161.19 0.6 164.09 0.6ZM164.09-3.35L164.09-3.35Q161.74-3.35 159.81-4.5 157.88-5.65 156.74-7.75 155.59-9.85 155.59-12.75L155.59-12.75Q155.59-15.55 156.71-17.65 157.84-19.75 159.74-20.95 161.63-22.15 164.03-22.15L164.03-22.15Q166.38-22.15 168.31-21 170.24-19.85 171.36-17.73 172.49-15.6 172.49-12.7L172.49-12.7Q172.49-9.85 171.36-7.75 170.24-5.65 168.31-4.5 166.38-3.35 164.09-3.35ZM188.93 0L184.28 0 184.28-25.5 188.93-25.5 188.93 0ZM186.63-29.55L186.63-29.55Q185.38-29.55 184.46-30.48 183.53-31.4 183.53-32.65L183.53-32.65Q183.53-33.9 184.46-34.83 185.38-35.75 186.63-35.75L186.63-35.75Q187.88-35.75 188.81-34.83 189.73-33.9 189.73-32.65L189.73-32.65Q189.73-31.4 188.81-30.48 187.88-29.55 186.63-29.55ZM200.78 0L196.18 0 196.18-14.75Q196.18-18.15 197.71-20.7 199.23-23.25 201.93-24.68 204.63-26.1 208.08-26.1L208.08-26.1Q211.58-26.1 214.25-24.68 216.93-23.25 218.46-20.7 219.98-18.15 219.98-14.75L219.98-14.75 219.98 0 215.38 0 215.38-14.7Q215.38-17 214.36-18.68 213.33-20.35 211.66-21.25 209.98-22.15 208.08-22.15L208.08-22.15Q206.18-22.15 204.5-21.25 202.83-20.35 201.81-18.68 200.78-17 200.78-14.7L200.78-14.7 200.78 0ZM255.22 0L249.22 0Q245.82 0 243.9-1.95 241.97-3.9 241.97-7.25L241.97-7.25 241.97-31.9 246.57-31.9 246.57-7.55Q246.57-5.9 247.5-4.93 248.43-3.95 250.07-3.95L250.07-3.95 255.22-3.95 255.22 0ZM255.32-21.55L237.57-21.55 237.57-25.5 255.32-25.5 255.32-21.55ZM279.57 0L273.02 0Q268.82 0 265.57-1.58 262.32-3.15 260.5-6.03 258.67-8.9 258.67-12.75L258.67-12.75Q258.67-16.55 260.22-19.58 261.77-22.6 264.52-24.35 267.27-26.1 270.92-26.1L270.92-26.1Q274.87-26.1 277.5-24.4 280.12-22.7 281.42-19.83 282.72-16.95 282.72-13.4L282.72-13.4Q282.72-12.85 282.7-12.25 282.67-11.65 282.57-11.2L282.57-11.2 263.57-11.2Q263.82-8.85 265.12-7.23 266.42-5.6 268.45-4.78 270.47-3.95 272.92-3.95L272.92-3.95 279.57-3.95 279.57 0ZM263.52-14.45L263.52-14.45 278.07-14.45Q278.07-15.4 277.87-16.48 277.67-17.55 277.17-18.57 276.67-19.6 275.85-20.43 275.02-21.25 273.8-21.75 272.57-22.25 270.92-22.25L270.92-22.25Q269.17-22.25 267.85-21.58 266.52-20.9 265.57-19.78 264.62-18.65 264.12-17.25 263.62-15.85 263.52-14.45ZM303.92 0L300.92 0Q296.97 0 293.87-1.7 290.77-3.4 288.97-6.28 287.17-9.15 287.17-12.75L287.17-12.75Q287.17-16.35 288.97-19.23 290.77-22.1 293.87-23.8 296.97-25.5 300.92-25.5L300.92-25.5 303.92-25.5 303.92-21.55 300.77-21.55Q298.22-21.55 296.19-20.38 294.17-19.2 293-17.2 291.82-15.2 291.82-12.75L291.82-12.75Q291.82-10.3 293-8.3 294.17-6.3 296.19-5.13 298.22-3.95 300.77-3.95L300.77-3.95 303.92-3.95 303.92 0ZM313.77 0L309.17 0 309.17-36.5 313.77-36.5 313.77-22.2Q315.32-24.2 317.54-25.15 319.77-26.1 322.17-26.1L322.17-26.1Q325.57-26.1 328.07-24.68 330.57-23.25 331.97-20.7 333.37-18.15 333.37-14.75L333.37-14.75 333.37 0 328.77 0 328.77-14.7Q328.77-17 327.72-18.68 326.67-20.35 324.94-21.25 323.22-22.15 321.27-22.15L321.27-22.15Q319.32-22.15 317.62-21.28 315.92-20.4 314.84-18.75 313.77-17.1 313.77-14.8L313.77-14.8 313.77 0Z" opacity="1" transform="matrix(1,0,0,1,0,0)" fill="#ffffff" class="wordmark-text-0" data-fill-palette-color="quaternary" id="text-0"></path></svg></g></svg></g></svg></g></svg></g><g></g></svg></g></svg></g></svg></g></svg></g><defs></defs></svg><rect width="320" height="360" fill="none" stroke="none" visibility="hidden"></rect></g></svg></g></svg>